<svg width="400" height="160" viewBox="0 0 400 160" fill="none" xmlns="http://www.w3.org/2000/svg">
<rect width="400" height="160" rx="32" fill="url(#paint0_linear)" />
<g filter="url(#filter0_d)">
<circle cx="80" cy="80" r="44" fill="white" stroke="url(#paint1_linear)" stroke-width="3" />
</g>
<path d="M80 52L96.8 68.8L80 85.6L63.2 68.8L80 52Z" fill="url(#paint2_linear)" stroke="white" stroke-width="2" />
<path d="M96.8 68.8V85.6L80 96L63.2 85.6V68.8L80 79.2L96.8 68.8Z" fill="url(#paint3_linear)" stroke="white" stroke-width="2" />
<path d="M80 79.2V96M80 79.2L63.2 68.8M80 79.2L96.8 68.8" stroke="white" stroke-width="2" />
<text x="150" y="95" font-family="Arial, Helvetica, sans-serif" font-size="48" font-weight="bold" fill="white">RaaS</text>
<text x="154" y="130" font-family="Arial, Helvetica, sans-serif" font-size="24" letter-spacing="4" fill="white" opacity="0.9">Service</text>
<defs>
<filter id="filter0_d" x="24" y="24" width="112" height="112" filterUnits="userSpaceOnUse" color-interpolation-filters="sRGB">
<feFlood flood-opacity="0" result="BackgroundImageFix" />
<feColorMatrix in="SourceAlpha" type="matrix" values="0 0 0 0 0 0 0 0 0 0 0 0 0 0 0 0 0 0 127 0" />
<feOffset />
<feGaussianBlur stdDeviation="4" />
<feColorMatrix type="matrix" values="0 0 0 0 0 0 0 0 0 0 0 0 0 0 0 0 0 0 0.25 0" />
<feBlend mode="normal" in2="BackgroundImageFix" result="effect1_dropShadow" />
<feBlend mode="normal" in="SourceGraphic" in2="effect1_dropShadow" result="shape" />
</filter>
<linearGradient id="paint0_linear" x1="0" y1="0" x2="400" y2="160" gradientUnits="userSpaceOnUse">
<stop stop-color="#667EEA" />
<stop offset="1" stop-color="#764BA2" />
</linearGradient>
<linearGradient id="paint1_linear" x1="36" y1="36" x2="124" y2="124" gradientUnits="userSpaceOnUse">
<stop stop-color="#FF6B6B" />
<stop offset="1" stop-color="#4ECDC4" />
</linearGradient>
<linearGradient id="paint2_linear" x1="63.2" y1="52" x2="96.8" y2="85.6" gradientUnits="userSpaceOnUse">
<stop stop-color="#4ECDC4" />
<stop offset="1" stop-color="#45B7D1" />
</linearGradient>
<linearGradient id="paint3_linear" x1="63.2" y1="68.8" x2="96.8" y2="96" gradientUnits="userSpaceOnUse">
<stop stop-color="#FF6B6B" />
<stop offset="1" stop-color="#FF8E8E" />
</linearGradient>
</defs>
</svg>